<?xml version="1.0" encoding="UTF-8"?>
<!-- Created with EazyDraw for Mac ( http://www.eazydraw.com/ ) -->

<svg
    version="1.1"
    xmlns:dc="http://purl.org/dc/elements/1.1/"
    xmlns:cc="http://creativecommons.org/ns#"
    xmlns:rdf="http://www.w3.org/1999/02/22-rdf-syntax-ns#"
    xmlns:svg="http://www.w3.org/2000/svg"
    xmlns:xlink="http://www.w3.org/1999/xlink"
    xmlns="http://www.w3.org/2000/svg"
    width="55.8625491213"
    height="55.272611812"
    viewBox="0, 0, 55.8625491213, 55.272611812"
    preserveAspectRatio="none"
    id="svg2">
   <defs
       id="defs_EEFF798A"/>
   <metadata
       id="metadata7">
      <rdf:RDF>
         <cc:Work
             rdf:about="">
            <dc:format>image/svg+xml</dc:format>
            <dc:type rdf:resource="http://purl.org/dc/dcmitype/StillImage"/>
            <dc:title></dc:title>
         </cc:Work>
      </rdf:RDF>
   </metadata>
   <g
       id="layer_Paper"
       style="fill:#000000;fill-opacity:1;stroke:#000000;stroke-opacity:1;fill-rule:nonzero;stroke-linecap:square;stroke-linejoin:miter;stroke-width:1;stroke-miterlimit:10">
      <g
          id="047D828A">
         <text
             id="B536128A"
             style="fill:#FF873F;stroke:none"
             font-family="Luminari"
             font-size="24"
             font-weight="normal"
             font-style="normal">
            <tspan x="14.8488384176" y="40.6758723256">Z</tspan>
         </text>
         <path
             style="fill:none;stroke:#FF6000"
             id="C536128A"
             d="M8.627744667774,46.6641535758 C7.196653412576,45.2069035361 5.934604690367,43.5927906243 4.865560750458,41.8524616573 L9.332936164989,40.888934669 C7.281986190175,37.5501311664 6.509077016613,33.581726107 7.157077116526,29.7172597145
L1.224060970436,23.1556384793 C1.695115224584,20.3464208041 2.605397744147,17.6288518388 3.92149296462,15.1026908329 C4.865188592366,13.2913271419 6.010306692227,11.5922591602 7.335105151623,10.0377467284
L10.8085316217,21.8790926989 C13.3501440526,18.8967763375 16.8854794739,16.9353914276 20.7610484617,16.3574903557 L23.991555352,0.796838530665 C26.8088438975,0.376741746065 29.6746983387,0.402696874291 32.4839160139,0.873751128439
C34.4982432421,1.211516841099 36.4680138712,1.775547990953 38.3558282872,2.555135439127 L29.343949774,17.4081031442 C32.9657026174,18.9037337703 35.9235692429,21.6599362903 37.6708025033,25.1672401783 L52.291580423,15.540763264
C53.5617062461,18.0903468478 54.422619178,20.8239569645 54.8427159626,23.64124551 C55.1439430263,25.6613598917 55.2162101253,27.7090182947 55.0581451395,29.7453422668 L39.3238727312,33.6547216062 C39.0206266563,37.5613885291 37.3133533438,41.2262002763 34.5176338971,43.9717343598
L47.0144634178,47.0118098255 C44.9821558009,49.007635922 42.648374813,50.6711447579 40.0987912292,51.941270581 C38.2706325648,52.8520042174 36.3455254591,53.553495558 34.3600215094,54.0324255366 L26.9563861715,48.1666735726
C23.1472169469,49.0854958876 19.1341973861,48.5942715897 15.6591144847,46.7838010826 L15.4530006749,51.7180615287 C12.926839669,50.4019663082 10.6235707643,48.6964611926 8.627744667774,46.6641535758 z"/>
      </g>
   </g>
</svg>
