<?xml version="1.0" encoding="UTF-8"?>
<!-- Created with EazyDraw for Mac ( http://www.eazydraw.com/ ) -->

<svg
    version="1.1"
    xmlns:dc="http://purl.org/dc/elements/1.1/"
    xmlns:cc="http://creativecommons.org/ns#"
    xmlns:rdf="http://www.w3.org/1999/02/22-rdf-syntax-ns#"
    xmlns:svg="http://www.w3.org/2000/svg"
    xmlns:xlink="http://www.w3.org/1999/xlink"
    xmlns="http://www.w3.org/2000/svg"
    width="397.094430814"
    height="131.997797242"
    viewBox="0, 0, 397.094430814, 131.997797242"
    preserveAspectRatio="none"
    id="svg2">
   <defs
       id="defs_FC3E92F3"/>
   <metadata
       id="metadata7">
      <rdf:RDF>
         <cc:Work
             rdf:about="">
            <dc:format>image/svg+xml</dc:format>
            <dc:type rdf:resource="http://purl.org/dc/dcmitype/StillImage"/>
            <dc:title></dc:title>
         </cc:Work>
      </rdf:RDF>
   </metadata>
   <g
       id="layer_Paper"
       style="fill:#000000;fill-opacity:1;stroke:#000000;stroke-opacity:1;fill-rule:nonzero;stroke-linecap:square;stroke-linejoin:miter;stroke-width:1;stroke-miterlimit:10">
      <text
          id="65F40373"
          style="stroke:none"
          font-family="Hiragino Maru Gothic ProN"
          font-size="48"
          font-weight="normal"
          font-style="normal">
         <tspan x="131.203805814" y="95.9616047004">Zephyrlent</tspan>
      </text>
      <g
          id="958F21E3">
         <path
             style="fill:#1398FF;fill-opacity:0;stroke:#EC663F"
             id="7CD1A0A3"
             d="M17.8132219387,110.745772458 C12.0641484092,104.686448085 7.530952632496,97.5804177382 4.459433182233,89.8129840192 L15.7114201218,87.1074049012 C12.7058747617,79.5068102276 11.9266993559,71.2075296596 13.4650344384,63.1803341669
L1.051112098903,53.509716843 C2.316104199703,46.9088539976 4.59256267891,40.5428454339 7.800056351142,34.6366131611 C11.7862548584,27.2964851123 17.1436567908,20.7892755896 23.5817735354,15.4678179797 L28.3147372837,38.1073510508
C34.6145677821,32.9001946296 42.2668742049,29.5945360459 50.3765624693,28.577039826 L57.0550032092,1.007985494968 C63.7237008883,0.171285678743 70.4815991727,0.369121516953 77.0899299166,1.594503129869
C85.3026096095,3.117378887523 93.1468618718,6.201732577252 100.197356294,10.6803246236 L78.8111969855,34.9519685996 C85.7102517169,39.3343636201 91.2188125844,45.5906348282 94.6925404875,52.9889830736 L124.293271029,38.0469238526
C127.149760754,44.1306777732 129.049913107,50.6189556091 129.926592444,57.2825153679 C131.016109125,65.5638323955 130.506721707,73.9772773318 128.426050153,82.0666570481 L97.4164082308,82.0018888476 C95.3804280466,89.9175143436 91.1325994691,97.0897611767 85.1697931164,102.679688073
L109.844914776,113.439978013 C104.941624835,118.036644531 99.358085289,121.848784924 93.2915721722,124.741709728 C85.7522508198,128.336969365 77.5931798198,130.452410609 69.2567596578,130.973330175 L58.4186014465,114.23572118
C50.2612417608,114.745451758 42.127378454,112.921872869 34.9684335567,108.97828944 L33.67707171,122.996509642 C27.7901821447,119.753651865 22.4392125744,115.621406361 17.8132219387,110.745772458 z"/>
         <text
             id="3618CDC3"
             style="fill:#FF873F;stroke:none"
             font-family="Luminari"
             font-size="64"
             font-weight="normal"
             font-style="normal">
            <tspan x="32.3381808145" y="92.7978790194">Z</tspan>
         </text>
      </g>
   </g>
</svg>
