z<?xml version="1.0" encoding="UTF-8"?>
<!-- Created with EazyDraw for Mac ( http://www.eazydraw.com/ ) -->

<svg
    version="1.1"
    xmlns:dc="http://purl.org/dc/elements/1.1/"
    xmlns:cc="http://creativecommons.org/ns#"
    xmlns:rdf="http://www.w3.org/1999/02/22-rdf-syntax-ns#"
    xmlns:svg="http://www.w3.org/2000/svg"
    xmlns:xlink="http://www.w3.org/1999/xlink"
    xmlns="http://www.w3.org/2000/svg"
    width="170"
    height="40"
    viewBox="0, 0, 170, 40"
    preserveAspectRatio="none"
    id="svg2">
   <defs
       id="defs_14E2106A"/>
   <metadata
       id="metadata7">
      <rdf:RDF>
         <cc:Work
             rdf:about="">
            <dc:format>image/svg+xml</dc:format>
            <dc:type rdf:resource="http://purl.org/dc/dcmitype/StillImage"/>
            <dc:title></dc:title>
         </cc:Work>
      </rdf:RDF>
   </metadata>
   <g
       id="layer_Paper"
       style="fill:#000000;fill-opacity:1;stroke:#000000;stroke-opacity:1;fill-rule:nonzero;stroke-linecap:square;stroke-linejoin:miter;stroke-width:1;stroke-miterlimit:10">
      <text
          id="38D2EA5A"
          style="stroke:none"
          font-family="Hiragino Maru Gothic ProN"
          font-size="24"
          font-weight="normal"
          font-style="normal">
         <tspan x="86.2357943628" y="53.6909132188">Zephyrlent</tspan>
      </text>
      <g
          id="68D2EA5A">
         <path
             style="fill:#1398FF;fill-opacity:0;stroke:#EC663F"
             id="48D2EA5A"
             d="M10.3968577735,61.9822013855 C7.191451080438,58.6038137545 4.66395930129,54.6418332515 2.951427890211,50.311086062 L9.224994241505,48.8025853672 C7.549246807744,44.5648595992 7.114816103659,39.9375802048 7.972517704463,35.4620023527
L1.051112098901,30.0701315866 C1.756410809303,26.3898081683 3.025654489707,22.8404281937 4.813998582355,19.5473973496 C7.036511011407,15.4548952351 10.0235404733,11.8267884019 13.6131244989,8.859799764132
L16.2519972841,21.4825137477 C19.7644795547,18.5792539513 24.031037305,16.7361778287 28.5526091562,16.1688709093 L32.2761862745,0.797693132546 C35.9943311312,0.331189585948 39.7622099521,0.441493327323 43.4466971112,1.124707136161
C48.0256920259,1.973789361493 52.3992695378,3.693476526702 56.3302858822,6.190523893863 L44.4063927832,19.7232243634 C48.252973645,22.166636899 51.3242820538,25.6548326059 53.2610655396,29.7797954997 L69.765008185,21.4488224499
C71.3576493711,24.8408308206 72.4170828675,28.4583822564 72.9058770703,32.1736624561 C73.5133391328,36.790926245 73.2293292258,41.4818581963 72.0692469113,45.9921069785 L54.7797630917,45.9559953474 C53.6445985342,50.3693671393 51.2762137704,54.3682667681 47.9516399423,57.4849409583
L61.7093001483,63.4843607282 C58.9754616765,66.047240738 55.8623487652,68.1727067401 52.4799530369,69.7856623723 C48.2763903238,71.7902061036 43.7272850361,72.9696743232 39.0792983916,73.2601140011 L33.0364630212,63.9280288188
C28.48831188,64.2122300556 23.9532611888,63.195490237 19.9617780791,60.9967379246 L19.2417768676,68.8126228023 C15.9595305862,67.0045613867 12.9760874998,64.7006201821 10.3968577735,61.9822013855 z"/>
         <text
             id="58D2EA5A"
             style="fill:#FF873F;stroke:none"
             font-family="Luminari"
             font-size="32"
             font-weight="normal"
             font-style="normal"
             transform="matrix(0.557551869287,0,0,0.557551869287,6.949761269046,7.455052822666)">
            <tspan x="20.7075163994" y="79.8495520834">Z</tspan>
         </text>
      </g>
   </g>
</svg>
