<?xml version="1.0" encoding="UTF-8"?>
<!-- Created with EazyDraw for Mac ( http://www.eazydraw.com/ ) -->

<svg
    version="1.1"
    xmlns:dc="http://purl.org/dc/elements/1.1/"
    xmlns:cc="http://creativecommons.org/ns#"
    xmlns:rdf="http://www.w3.org/1999/02/22-rdf-syntax-ns#"
    xmlns:svg="http://www.w3.org/2000/svg"
    xmlns:xlink="http://www.w3.org/1999/xlink"
    xmlns="http://www.w3.org/2000/svg"
    width="270.890625"
    height="198.500048867"
    viewBox="0, 0, 270.890625, 198.500048867"
    preserveAspectRatio="none"
    id="svg2">
   <defs
       id="defs_4EE983F3"/>
   <metadata
       id="metadata7">
      <rdf:RDF>
         <cc:Work
             rdf:about="">
            <dc:format>image/svg+xml</dc:format>
            <dc:type rdf:resource="http://purl.org/dc/dcmitype/StillImage"/>
            <dc:title></dc:title>
         </cc:Work>
      </rdf:RDF>
   </metadata>
   <g
       id="layer_Paper"
       style="fill:#000000;fill-opacity:1;stroke:#000000;stroke-opacity:1;fill-rule:nonzero;stroke-linecap:square;stroke-linejoin:miter;stroke-width:1;stroke-miterlimit:10">
      <text
          id="5BDAA1E3"
          style="stroke:none"
          font-family="Hiragino Maru Gothic ProN"
          font-size="48"
          font-weight="normal"
          font-style="normal">
         <tspan x="5" y="168.500000229">Zephyrlent</tspan>
      </text>
      <g
          id="8BDAA1E3">
         <path
             style="fill:#1398FF;fill-opacity:0;stroke:#EC663F"
             id="6BDAA1E3"
             d="M88.0742598746,110.745772459 C82.3251863451,104.686448085 77.7919905683,97.5804177386 74.720471118,89.8129840197 L85.9724580575,87.1074049016 C82.9669126974,79.506810228 82.1877372914,71.20752966 83.7260723739,63.1803341673
L71.3121500344,53.5097168435 C72.5771421351,46.9088539981 74.8536006143,40.5428454344 78.0610942865,34.6366131615 C82.0472927937,27.2964851128 87.404694726,20.78927559 93.8428114706,15.46781798 L98.575775219,38.1073510511
C104.875605717,32.9001946298 112.52791214,29.5945360461 120.637600405,28.5770398261 L127.316041144,1.007985495034 C133.984738823,0.171285678756 140.742637108,0.369121516909 147.350967852,1.594503129768
C155.563647545,3.117378887352 163.407899807,6.201732577009 170.458394229,10.6803246233 L149.072234921,34.9519685994 C155.971289652,39.3343636199 161.47985052,45.590634828 164.953578423,52.9889830733 L194.554308964,38.0469238521
C197.41079869,44.1306777726 199.310951043,50.6189556085 200.187630379,57.2825153673 C201.277147061,65.5638323949 200.767759643,73.9772773312 198.687088089,82.0666570475 L167.677446166,82.0018888472 C165.641465982,89.9175143433 161.393637405,97.0897611765 155.430831052,102.679688073
L180.105952711,113.439978012 C175.202662771,118.036644531 169.619123225,121.848784924 163.552610108,124.741709728 C156.013288756,128.336969365 147.854217756,130.452410608 139.517797594,130.973330175 L128.679639382,114.23572118
C120.522279697,114.745451758 112.38841639,112.921872869 105.229471493,108.97828944 L103.938109646,122.996509642 C98.0512200807,119.753651865 92.7002505104,115.621406362 88.0742598746,110.745772459 z"/>
         <text
             id="7BDAA1E3"
             style="fill:#FF873F;stroke:none"
             font-family="Luminari"
             font-size="64"
             font-weight="normal"
             font-style="normal">
            <tspan x="102.59921875" y="92.797879019">Z</tspan>
         </text>
      </g>
   </g>
</svg>
