<?xml version="1.0" encoding="UTF-8"?>
<!-- Created with EazyDraw for Mac ( http://www.eazydraw.com/ ) -->

<svg
    version="1.1"
    xmlns:dc="http://purl.org/dc/elements/1.1/"
    xmlns:cc="http://creativecommons.org/ns#"
    xmlns:rdf="http://www.w3.org/1999/02/22-rdf-syntax-ns#"
    xmlns:svg="http://www.w3.org/2000/svg"
    xmlns:xlink="http://www.w3.org/1999/xlink"
    xmlns="http://www.w3.org/2000/svg"
    width="136.8046875"
    height="98.2124591443"
    viewBox="0, 0, 136.8046875, 98.2124591443"
    preserveAspectRatio="none"
    id="svg2">
   <defs
       id="defs_E431A88A"/>
   <metadata
       id="metadata7">
      <rdf:RDF>
         <cc:Work
             rdf:about="">
            <dc:format>image/svg+xml</dc:format>
            <dc:type rdf:resource="http://purl.org/dc/dcmitype/StillImage"/>
            <dc:title></dc:title>
         </cc:Work>
      </rdf:RDF>
   </metadata>
   <g
       id="layer_Paper"
       style="fill:#000000;fill-opacity:1;stroke:#000000;stroke-opacity:1;fill-rule:nonzero;stroke-linecap:square;stroke-linejoin:miter;stroke-width:1;stroke-miterlimit:10">
      <text
          id="A536128A"
          style="stroke:none"
          font-family="Hiragino Maru Gothic ProN"
          font-size="24"
          font-weight="normal"
          font-style="normal">
         <tspan x="5" y="83.2124348256">Zephyrlent</tspan>
      </text>
      <g
          id="047D828A">
         <text
             id="B536128A"
             style="fill:#FF873F;stroke:none"
             font-family="Luminari"
             font-size="24"
             font-weight="normal"
             font-style="normal">
            <tspan x="55.25625" y="40.6758723256">Z</tspan>
         </text>
         <path
             style="fill:none;stroke:#FF6000"
             id="C536128A"
             d="M49.0351562501,46.6641535758 C47.6040649949,45.2069035361 46.3420162727,43.5927906243 45.2729723328,41.8524616573 L49.7403477474,40.888934669 C47.6893977725,37.5501311664 46.916488599,33.581726107 47.5644886989,29.7172597145
L41.6314725528,23.1556384793 C42.1025268069,20.3464208041 43.0128093265,17.6288518388 44.328904547,15.1026908329 C45.2726001747,13.2913271419 46.4177182746,11.5922591602 47.742516734,10.0377467284 L51.215943204,21.8790926989
C53.757555635,18.8967763375 57.2928910563,16.9353914276 61.1684600441,16.3574903557 L64.3989669344,0.796838530665 C67.2162554799,0.376741746065 70.0821099211,0.402696874291 72.8913275963,0.873751128439
C74.9056548245,1.211516841099 76.8754254535,1.775547990953 78.7632398696,2.555135439127 L69.7513613564,17.4081031442 C73.3731141998,18.9037337703 76.3309808253,21.6599362903 78.0782140856,25.1672401783
L92.6989920054,15.540763264 C93.9691178285,18.0903468478 94.8300307604,20.8239569645 95.250127545,23.64124551 C95.5513546087,25.6613598917 95.6236217076,27.7090182947 95.4655567218,29.7453422668 L79.7312843136,33.6547216062
C79.4280382387,37.5613885291 77.7207649262,41.2262002763 74.9250454795,43.9717343598 L87.4218750001,47.0118098255 C85.3895673833,49.007635922 83.0557863954,50.6711447579 80.5062028116,51.941270581 C78.6780441471,52.8520042174 76.7529370415,53.553495558 74.7674330918,54.0324255366
L67.3637977539,48.1666735726 C63.5546285292,49.0854958876 59.5416089685,48.5942715897 56.0665260671,46.7838010826 L55.8604122573,51.7180615287 C53.3342512514,50.4019663082 51.0309823467,48.6964611926 49.0351562501,46.6641535758
z"/>
      </g>
   </g>
</svg>
