<?xml version="1.0" encoding="UTF-8"?>
<!-- Created with EazyDraw for Mac ( http://www.eazydraw.com/ ) -->

<svg
    version="1.1"
    xmlns:dc="http://purl.org/dc/elements/1.1/"
    xmlns:cc="http://creativecommons.org/ns#"
    xmlns:rdf="http://www.w3.org/1999/02/22-rdf-syntax-ns#"
    xmlns:svg="http://www.w3.org/2000/svg"
    xmlns:xlink="http://www.w3.org/1999/xlink"
    xmlns="http://www.w3.org/2000/svg"
    width="357.749438743"
    height="94.1018959734"
    viewBox="0, 0, 357.749438743, 94.1018959734"
    preserveAspectRatio="none"
    id="svg2">
   <defs
       id="defs_4ED420A4"/>
   <metadata
       id="metadata7">
      <rdf:RDF>
         <cc:Work
             rdf:about="">
            <dc:format>image/svg+xml</dc:format>
            <dc:type rdf:resource="http://purl.org/dc/dcmitype/StillImage"/>
            <dc:title></dc:title>
         </cc:Work>
      </rdf:RDF>
   </metadata>
   <g
       id="layer_Paper"
       style="fill:#000000;fill-opacity:1;stroke:#000000;stroke-opacity:1;fill-rule:nonzero;stroke-linecap:square;stroke-linejoin:miter;stroke-width:1;stroke-miterlimit:10">
      <text
          id="C11AC4E3"
          style="stroke:none"
          font-family="Hiragino Maru Gothic ProN"
          font-size="48"
          font-weight="normal"
          font-style="normal">
         <tspan x="97.7728762434" y="64.101847336">Zephyrlent</tspan>
      </text>
      <g
          id="021AC4E3">
         <path
             style="fill:#EC663F;stroke:#EC663F"
             id="E11AC4E3"
             d="M11.2276649694,67.4320236453 C7.737307771654,63.753308052 4.985129976996,59.4391200285 3.120359946442,54.7233831277 L9.95162648024,53.080781498 C8.126910406106,48.4663353287 7.653860188114,43.427705449 8.587808745197,38.5542628984
L1.051112098901,32.6830718954 C1.819109631231,28.6755793794 3.201185055585,24.8106707647 5.148507275027,21.2248999063 C7.568594021125,16.7685873134 10.8211609433,12.8179532716 14.7298476219,9.58720873931
L17.6033078413,23.3320420244 C21.428038663,20.1706916257 26.0738798867,18.1637718722 30.9974051572,17.5460331641 L35.0519964901,0.808406357966 C39.1006726506,0.300432123324 43.2035039671,0.420541518015 47.2155303673,1.164490870967
C52.2015834298,2.089053817393 56.963958133,3.961615725959 61.2444293823,6.68064269681 L48.2605399454,21.4163573849 C52.4490696652,24.0769815576 55.7934076657,27.8752668168 57.9023650703,32.3669258496 L75.8734559549,23.295355677
C77.6076778991,26.9889028505 78.7612916785,30.9280431535 79.2935381381,34.9735999979 C79.9550016544,40.0013239165 79.6457441659,45.1092648638 78.3825342073,50.0204604804 L59.5560700256,49.9811386396 C58.3199929337,54.7868452082 55.7410662642,59.141234351 52.1209483505,62.5349710073
L67.1016209832,69.0677201968 C64.1247529284,71.8584321238 60.7348941374,74.1728453228 57.0518141397,75.9291876031 C52.4745680125,78.1119289244 47.5210616701,79.3962481338 42.4598837315,79.7125069794 L35.8798594321,69.5508289757
C30.9273920568,69.8602948024 25.98918972,68.7531700336 21.6428764015,66.3589556033 L20.8588693623,74.8696478965 C17.2848417801,72.9008555466 14.0361800508,70.3921012646 11.2276649694,67.4320236453 z"/>
         <text
             id="F11AC4E3"
             style="fill:#FFFFFF;stroke:none"
             font-family="Luminari"
             font-size="64"
             font-weight="normal"
             font-style="normal"
             transform="matrix(0.607170946219,0,0,0.607170946219,6.682188894007,7.183753190542)">
            <tspan x="22.0104243301" y="81.2872247391">Z</tspan>
         </text>
      </g>
   </g>
</svg>
