<?xml version="1.0" encoding="UTF-8"?>
<!-- Created with EazyDraw for Mac ( http://www.eazydraw.com/ ) -->

<svg
    version="1.1"
    xmlns:dc="http://purl.org/dc/elements/1.1/"
    xmlns:cc="http://creativecommons.org/ns#"
    xmlns:rdf="http://www.w3.org/1999/02/22-rdf-syntax-ns#"
    xmlns:svg="http://www.w3.org/2000/svg"
    xmlns:xlink="http://www.w3.org/1999/xlink"
    xmlns="http://www.w3.org/2000/svg"
    width="203.309775918"
    height="56.2852716443"
    viewBox="0, 0, 203.309775918, 56.2852716443"
    preserveAspectRatio="none"
    id="svg2">
   <defs
       id="defs_4C3C918A"/>
   <metadata
       id="metadata7">
      <rdf:RDF>
         <cc:Work
             rdf:about="">
            <dc:format>image/svg+xml</dc:format>
            <dc:type rdf:resource="http://purl.org/dc/dcmitype/StillImage"/>
            <dc:title></dc:title>
         </cc:Work>
      </rdf:RDF>
   </metadata>
   <g
       id="layer_Paper"
       style="fill:#000000;fill-opacity:1;stroke:#000000;stroke-opacity:1;fill-rule:nonzero;stroke-linecap:square;stroke-linejoin:miter;stroke-width:1;stroke-miterlimit:10">
      <text
          id="413CB57A"
          style="stroke:none"
          font-family="Hiragino Maru Gothic ProN"
          font-size="24"
          font-weight="normal"
          font-style="normal">
         <tspan x="64.3097759176" y="41.2852473256">Zephyrlent</tspan>
      </text>
      <text
          id="513CB57A"
          style="fill:#FF873F;stroke:none"
          font-family="Luminari"
          font-size="24"
          font-weight="normal"
          font-style="normal">
         <tspan x="14.8488384176" y="40.6758723256">Z</tspan>
      </text>
      <path
          style="fill:none;stroke:#FF6000"
          id="7BE6CB7A"
          d="M8.627744667616,46.6641535756 C7.196653412427,45.206903536 5.934604690228,43.5927906242 4.865560750331,41.8524616572 L9.332936164876,40.8889346689 C7.281986190086,37.5501311662 6.509077016552,33.5817261069 7.157077116491,29.7172597143
L1.224060970438,23.1556384792 C1.695115224606,20.346420804 2.605397744188,17.6288518386 3.921492964678,15.1026908328 C4.865188592437,13.2913271418 6.010306692311,11.5922591601 7.335105151719,10.0377467282
L10.8085316217,21.8790926988 C13.3501440527,18.8967763374 16.885479474,16.9353914275 20.7610484618,16.3574903557 L23.9915553522,0.796838530637 C26.8088438977,0.376741746057 29.6746983389,0.402696874302 32.4839160141,0.87375112847
C34.4982432423,1.211516841144 36.4680138713,1.775547991013 38.3558282874,2.555135439201 L29.3439497741,17.4081031442 C32.9657026174,18.9037337704 35.923569243,21.6599362904 37.6708025033,25.1672401784 L52.2915804231,15.5407632642
C53.5617062462,18.090346848 54.422619178,20.8239569647 54.8427159626,23.6412455102 C55.1439430263,25.6613598919 55.2162101253,27.7090182949 55.0581451394,29.745342267 L39.3238727311,33.6547216063 C39.0206266562,37.5613885292 37.3133533437,41.2262002763 34.517633897,43.9717343598
L47.0144634176,47.0118098256 C44.9821558008,49.0076359222 42.6483748128,50.6711447581 40.0987912291,51.9412705811 C38.2706325646,52.8520042175 36.3455254589,53.553495558 34.3600215092,54.0324255367 L26.9563861713,48.1666735726
C23.1472169467,49.0854958875 19.1341973859,48.5942715896 15.6591144846,46.7838010825 L15.4530006747,51.7180615286 C12.9268396688,50.4019663081 10.6235707641,48.6964611925 8.627744667616,46.6641535756 z"/>
   </g>
</svg>
